HIERARCHY
ROOT Hips
{
    OFFSET 0.000000 0.000000 0.000000
    CHANNELS 6 Xposition Yposition Zposition Zrotation Xrotation Yrotation
        JOINT Chest
        {
            OFFSET -0.000000 26.747992 -0.000000
            CHANNELS 3 Zrotation Xrotation Yrotation
            JOINT Neck
            {
                OFFSET -0.000000 19.168715 0.000000
                CHANNELS 3 Zrotation Xrotation Yrotation
                JOINT Head
                {
                    OFFSET -0.000000 10.083335 0.000000
                    CHANNELS 3 Zrotation Xrotation Yrotation
                    End Site
                    {
                        OFFSET -0.000000 15.583343 0.000000
                    }
                }
            }
            JOINT LeftCollar
            {
                OFFSET -0.000000 19.168715 0.000000
                CHANNELS 3 Zrotation Xrotation Yrotation
                JOINT LeftShoulder
                {
                    OFFSET 19.500000 -0.000000 0.000000
                    CHANNELS 3 Zrotation Xrotation Yrotation
                    JOINT LeftElbow
                    {
                        OFFSET 19.022890 0.000000 0.000000
                        CHANNELS 3 Zrotation Xrotation Yrotation
                        JOINT LeftWrist
                        {
                            OFFSET 24.768559 0.000000 0.000000
                            CHANNELS 3 Zrotation Xrotation Yrotation
                            End Site
                            {
                                OFFSET 0.000000 -13.750003 0.000000
                            }
                        }
                    }
                }
            }
            JOINT RightCollar
            {
                OFFSET -0.000000 19.168715 0.000000
                CHANNELS 3 Zrotation Xrotation Yrotation
                JOINT RightShoulder
                {
                    OFFSET -19.500000 0.000000 0.000000
                    CHANNELS 3 Zrotation Xrotation Yrotation
                    JOINT RightElbow
                    {
                        OFFSET -19.022890 0.000000 0.000000
                        CHANNELS 3 Zrotation Xrotation Yrotation
                        JOINT RightWrist
                        {
                            OFFSET -24.768559 0.000000 0.000000
                            CHANNELS 3 Zrotation Xrotation Yrotation
                            End Site
                            {
                                OFFSET -0.000000 -13.750003 0.000000
                            }
                        }
                    }
                }
            }
        }
    JOINT LeftHip
    {
        OFFSET 11.000002 0.000000 0.000000
        CHANNELS 3 Zrotation Xrotation Yrotation
        JOINT LeftKnee
        {
            OFFSET -0.000000 -39.837296 0.000000
            CHANNELS 3 Zrotation Xrotation Yrotation
            JOINT LeftAnkle
            {
                OFFSET -0.000000 -38.248398 0.000000
                CHANNELS 3 Zrotation Xrotation Yrotation
                End Site
                {
                    OFFSET -0.000000 -4.583334 15.583343
                }
            }
        }
    }
    JOINT RightHip
    {
        OFFSET -11.000002 0.000000 0.000000
        CHANNELS 3 Zrotation Xrotation Yrotation
        JOINT RightKnee
        {
            OFFSET -0.000000 -39.837296 0.000000
            CHANNELS 3 Zrotation Xrotation Yrotation
            JOINT RightAnkle
            {
                OFFSET -0.000000 -38.248398 0.000000
                CHANNELS 3 Zrotation Xrotation Yrotation
                End Site
                {
                    OFFSET -0.000000 -4.583334 15.583343
                }
            }
        }
    }
}
MOTION
Frames:    16
Frame Time:    0.010000
-37.241615    84.459167    -32.867683    -0.201117    -1.794928    -25.583752    -1.613047    4.912179    -0.841590    -2.032892    -2.827963    -2.619949    4.335531    -24.346609    -1.669500    -22.040384    -2.456385    12.706467    6.205062    46.627323    -66.951256    8.089545    -7.076066    -82.646454    158.575546    16.645164    44.636707    14.731431    -0.187597    -1.234763    43.595192    8.174321    8.247687    45.130768    32.370789    69.907784    -95.346436    -19.339540    25.244987    4.096209    3.799419    3.112749    0.970195    21.092585    17.391468    -9.155927    -17.282303    -0.393325    -8.284405    -16.426813    -9.234473    -8.543684    29.839756    -7.437697    9.318114    -7.700583    13.318809    
-37.581123    84.435890    -32.878216    -0.054111    -1.671325    -25.473619    -1.409894    5.066365    -1.131652    -2.093636    -3.722996    -2.465932    4.438087    -24.059040    -1.452019    -21.800894    -2.431402    12.571625    6.135499    46.639523    -67.233414    8.246548    -7.309915    -82.185059    158.392044    16.558533    45.047798    14.425933    -0.161627    -1.084579    43.494888    8.438771    8.555331    44.902203    32.276302    70.219635    -96.231186    -19.025900    24.937695    4.422800    2.707748    2.887563    0.685798    22.708828    18.112818    -9.602689    -17.113937    -0.761740    -8.273987    -16.550194    -10.156194    -8.903932    29.864510    -7.029907    10.165973    -7.612964    13.741340    
-37.854904    84.392509    -32.916981    0.089406    -1.442066    -25.215355    -1.297475    4.744030    -1.655767    -2.155330    -3.721960    -2.367766    4.549144    -24.215170    -1.321565    -21.861931    -2.404265    12.155132    6.382510    46.708439    -67.110718    8.321416    -7.326555    -82.276054    158.479156    16.874546    45.171787    14.497284    -0.134996    -1.085010    43.241230    8.915494    8.762843    44.250412    31.818018    70.614288    -95.293060    -19.191383    24.982473    4.932401    1.240854    3.011164    0.510193    24.800264    17.677206    -9.861904    -16.853172    -1.037185    -8.234777    -16.688696    -10.344529    -8.824364    29.915745    -7.254008    10.013136    -7.965396    13.972720    
-38.076473    84.378082    -32.944290    0.203720    -1.289939    -25.052876    -1.202830    4.614347    -1.971786    -2.124928    -3.982242    -2.236956    4.548358    -24.138872    -1.190540    -21.835953    -2.349165    11.977536    6.395946    46.663376    -67.075142    8.386491    -7.360543    -82.166435    158.501709    17.011749    45.333633    14.466716    -0.106474    -0.946809    43.069931    9.146941    8.923926    43.763859    31.659653    70.951164    -95.475548    -19.229788    24.507010    5.272837    0.191990    3.035383    0.347085    26.277281    17.644920    -10.177091    -16.611530    -1.260143    -8.215864    -16.788445    -10.648248    -8.863573    29.937569    -7.232587    10.085732    -8.140284    14.135713    
-38.324696    84.365463    -32.978687    0.334587    -1.105795    -24.855188    -1.095562    4.424684    -2.339146    -2.075367    -4.178687    -2.154784    4.504794    -24.092747    -1.117767    -21.826773    -2.290090    11.619396    6.356525    46.670380    -66.956161    8.440259    -7.364051    -82.050743    158.526215    17.157705    45.490788    14.465158    -0.106448    -0.897182    42.841133    9.397802    9.075286    43.230530    31.449142    71.345055    -95.581566    -19.240595    24.060553    5.681295    -1.057693    3.100820    0.166057    28.013521    17.531395    -10.553424    -16.272179    -1.499881    -8.188056    -16.898664    -10.935392    -8.877238    29.950747    -7.238855    10.127787    -8.352377    14.271448    
-38.592873    84.355667    -33.019333    0.477501    -0.891575    -24.624313    -0.983324    4.180989    -2.749420    -1.984973    -4.346985    -2.060751    4.447474    -24.047665    -1.038856    -21.842489    -2.232716    11.209221    6.240929    46.661476    -66.743988    8.395391    -7.331724    -81.946198    158.642029    17.306915    45.619625    14.486620    -0.086988    -0.834828    42.561890    9.646399    9.236270    42.696976    31.236315    71.706955    -95.724831    -19.262514    23.527695    6.156997    -2.495011    3.215359    -0.026637    29.983179    17.325235    -10.985831    -15.808856    -1.752233    -8.146959    -17.012794    -11.182713    -8.858393    29.946836    -7.287838    10.135021    -8.591925    14.367688    
-38.873806    84.350105    -33.064606    0.626805    -0.652099    -24.365618    -0.866116    3.891956    -3.190853    -1.850446    -4.489857    -1.952153    4.374958    -23.991739    -0.949721    -21.893534    -2.162012    10.763973    6.019242    46.605110    -66.409142    8.328948    -7.212451    -81.863045    158.695114    17.399935    45.712795    14.522238    -0.115461    -0.754692    42.249546    9.947288    9.384816    42.067883    30.955673    72.185143    -95.762604    -19.225990    23.008801    6.695336    -4.093415    3.380242    -0.224292    32.143799    17.030111    -11.467736    -15.195970    -2.017759    -8.088786    -17.122864    -11.369709    -8.801966    29.917818    -7.389966    10.104857    -8.846408    14.414294    
-39.160236    84.350571    -33.111954    0.776263    -0.395516    -24.088099    -0.744041    3.572185    -3.648639    -1.677220    -4.610283    -1.836209    4.287938    -23.916634    -0.859935    -21.982929    -2.084232    10.282535    5.683006    46.498653    -65.960724    8.206080    -7.030864    -81.794373    158.783768    17.484335    45.773834    14.561653    -0.096167    -0.669039    41.915203    10.174502    9.547029    41.492596    30.730440    72.553848    -95.913460    -19.215542    22.323074    7.287273    -5.812345    3.588614    -0.421680    34.437252    16.662096    -11.986787    -14.415279    -2.296372    -8.010999    -17.219866    -11.480952    -8.706708    29.857689    -7.544078    10.036787    -9.103654    14.399920    
-39.445160    84.359062    -33.158024    0.920039    -0.132883    -23.804354    -0.620303    3.241333    -4.105622    -1.465182    -4.721067    -1.708688    4.190234    -23.810066    -0.767507    -22.105789    -2.011733    9.789347    5.239018    46.343754    -65.422485    8.019500    -6.802895    -81.734596    158.872009    17.512779    45.792915    14.590961    -0.068506    -0.570653    41.586353    10.341594    9.713763    40.912983    30.487692    72.950951    -95.972816    -19.148647    21.665400    7.919243    -7.599308    3.826527    -0.616961    36.793247    16.244646    -12.517276    -13.465475    -2.584766    -7.913491    -17.294704    -11.507895    -8.574759    29.763002    -7.738362    9.932739    -9.352150    14.314406    
-39.722294    84.377670    -33.198849    1.054082    0.123186    -23.529968    -0.500866    2.919384    -4.543960    -1.219165    -4.831072    -1.579643    4.085781    -23.663223    -0.671016    -22.256573    -1.934782    9.297248    4.707478    46.139877    -64.821342    7.771304    -6.523492    -81.690033    158.952179    17.483810    45.774082    14.597172    -0.048780    -0.468893    41.292431    10.429007    9.857966    40.356480    30.265867    73.336273    -95.981018    -19.034174    21.010826    8.574034    -9.395222    4.078523    -0.810722    39.136051    15.798066    -13.021729    -12.373926    -2.876621    -7.799149    -17.339165    -11.449871    -8.411796    29.632006    -7.956482    9.797423    -9.581289    14.156474    
-39.986671    84.408798    -33.229713    1.177000    0.359319    -23.283318    -0.395855    2.625887    -4.945374    -0.941309    -4.951112    -1.442765    3.976463    -23.469238    -0.576717    -22.423195    -1.855346    8.829460    4.135889    45.898865    -64.222488    7.487518    -6.236123    -81.638237    158.989777    17.382765    45.729481    14.570550    -0.028802    -0.369157    41.058933    10.412752    9.968593    39.871841    30.093599    73.663033    -95.958618    -18.880295    20.378193    9.232288    -11.140093    4.335665    -1.000833    41.391796    15.326894    -13.460034    -11.202188    -3.162709    -7.674093    -17.345448    -11.313735    -8.225746    29.462337    -8.182430    9.637617    -9.780154    13.937386    
-40.235119    84.455177    -33.245186    1.290223    0.562356    -23.084892    -0.318198    2.377739    -5.291661    -0.634361    -5.089461    -1.302406    3.865896    -23.222284    -0.480865    -22.591990    -1.776951    8.407783    3.583865    45.645153    -63.696072    7.203797    -5.978677    -81.561317    158.960114    17.220024    45.682259    14.504118    -0.028425    -0.281843    40.909931    10.315324    10.029256    39.451836    29.953857    73.962494    -95.850090    -18.666529    19.845215    9.874446    -12.777715    4.601007    -1.175838    43.492809    14.813860    -13.794772    -10.033502    -3.431778    -7.546681    -17.305349    -11.111511    -8.025491    29.248999    -8.404811    9.461440    -9.937607    13.681222    
-40.465866    84.519264    -33.239697    1.397370    0.720942    -22.955399    -0.281733    2.187848    -5.566270    -0.301069    -5.252481    -1.157220    3.756224    -22.919056    -0.384132    -22.749617    -1.705991    8.055644    3.119251    45.410038    -63.315807    6.961078    -5.792103    -81.441307    158.843887    17.017740    45.660698    14.394992    -0.008167    -0.217482    40.858681    10.119906    10.048615    39.143524    29.882540    74.167969    -95.715073    -18.421537    19.388817    10.481793    -14.258041    4.886883    -1.313213    45.377789    14.228940    -13.994591    -8.954042    -3.673130    -7.426150    -17.211681    -10.858327    -7.820746    28.985426    -8.614923    9.277592    -10.043566    13.419281    
-40.677902    84.602585    -33.208473    1.503023    0.827237    -22.912863    -0.298537    2.063199    -5.756284    0.051803    -5.441131    -1.010518    3.650582    -22.561640    -0.285949    -22.885754    -1.645038    7.790930    2.805585    45.224049    -63.141552    6.802646    -5.704349    -81.268288    158.628967    16.811771    45.694122    14.244695    -0.027419    -0.186272    40.916634    9.912238    10.004270    38.859821    29.801292    74.411255    -95.430107    -18.102486    19.118290    11.036677    -15.538410    5.206149    -1.384785    46.990311    13.548728    -14.041465    -8.038327    -3.878312    -7.321128    -17.060553    -10.571659    -7.622397    28.666262    -8.802064    9.094106    -10.091746    13.180811    
-40.870655    84.705185    -33.148163    1.610983    0.877759    -22.970421    -0.376639    2.004961    -5.853961    0.416125    -5.652088    -0.861301    3.550766    -22.157722    -0.188459    -22.992233    -1.602983    7.627484    2.691663    45.115818    -63.214058    6.759361    -5.742704    -81.034462    158.319336    16.635326    45.807228    14.061811    -0.007034    -0.191502    41.076073    9.638394    9.916902    38.696972    29.804689    74.529221    -95.182953    -17.793156    18.890762    11.523869    -16.585188    5.566434    -1.364788    48.280060    12.769798    -13.934918    -7.339291    -4.038990    -7.237776    -16.852167    -10.268241    -7.441303    28.289354    -8.953423    8.917535    -10.080926    12.987300    
-41.043861    84.825584    -33.057194    1.723405    0.873769    -23.135109    -0.518036    2.008856    -5.857664    0.779080    -5.879642    -0.716936    3.461704    -21.716595    -0.087018    -23.066370    -1.578302    7.569804    2.800297    45.096447    -63.536533    6.862226    -5.897005    -80.747643    157.916138    16.525291    46.018871    13.857509    -0.026059    -0.233212    41.329472    9.399374    9.766190    38.538181    29.775457    74.710289    -94.787216    -17.428080    18.867670    11.931085    -17.376234    5.965396    -1.238861    49.205978    11.916751    -13.687811    -6.884222    -4.145682    -7.178888    -16.591776    -9.962878    -7.287771    27.857576    -9.053438    8.752079    -10.015547    12.849133    
